<svg width="49" height="73" viewBox="0 0 49 73" fill="none" xmlns="http://www.w3.org/2000/svg">
<path d="M20.1221 0.268799C23.0025 -0.316018 28.7997 0.0866424 32.1602 1.14673C41.9832 4.25423 49 13.796 49 24.0325C48.9631 26.5185 48.7416 27.7985 47.8184 30.6135C46.3412 34.964 43.1279 41.5076 39.5459 47.4299C36.1963 52.9915 30.3198 61.6095 26.9805 66.0823C32.1395 66.4275 36 67.8264 36 69.5002C35.9996 71.4331 30.851 73.0002 24.5 73.0002C18.149 73.0002 13.0004 71.4331 13 69.5002C13 67.8228 16.8777 66.4216 22.0537 66.0803C18.8575 61.8002 13.3287 53.7278 9.89258 48.1614C6.49514 42.6044 2.50637 34.5981 1.21387 30.7229C-0.817189 24.5445 -0.299418 18.9145 2.76562 13.0286C6.23692 6.44796 12.4409 1.87739 20.1221 0.268799ZM24.5537 10.2502C24.4429 10.2137 21.3778 13.3212 17.7588 17.1233L11.1484 24.0325H14.915V36.0969H21.9316V29.1506H27.1016V36.0969H34.1182V24.0686L35.9277 23.9592L37.7363 23.8499L31.2373 17.0862C27.698 13.3633 24.6738 10.2966 24.5537 10.2502Z" fill="#1E7CF8"/>
</svg>
